PathFileType	4	(X/Y/Z)	SUBJ62_3_walk_RCNL2025.trc
DataRate	CameraRate	NumFrames	NumMarkers	Units	OrigDataRate	OrigDataStartFrame	OrigNumFrames
100	100	11	25	mm	100	80	316
Frame#	Time	R_Shoulder			L_Shoulder			C7			J_Notch			R_Elbow			L_Elbow			R_Wrist			L_Wrist			R_Asis			L_Asis			Sacral			Thoracic			Sternum			R_Thigh_Lateral			R_Knee_Lateral			R_Shank_Lateral			R_Ankle_Lateral			R_Heel			R_Toe			L_Thigh_Lateral			L_Knee_Lateral			L_Shank_Lateral			L_Ankle_Lateral			L_Heel			L_Toe		
		X1	Y1	Z1	X2	Y2	Z2	X3	Y3	Z3	X4	Y4	Z4	X5	Y5	Z5	X6	Y6	Z6	X7	Y7	Z7	X8	Y8	Z8	X9	Y9	Z9	X10	Y10	Z10	X11	Y11	Z11	X12	Y12	Z12	X13	Y13	Z13	X14	Y14	Z14	X15	Y15	Z15	X16	Y16	Z16	X17	Y17	Z17	X18	Y18	Z18	X19	Y19	Z19	X20	Y20	Z20	X21	Y21	Z21	X22	Y22	Z22	X23	Y23	Z23	X24	Y24	Z24	X25	Y25	Z25
80	0.79000000	-1153.541260	1255.460938	280.158722	-1191.759766	1271.164429	-57.096001	-1242.309448	1330.265625	118.950264	-1111.817139	1242.226318	106.173477	-1106.164795	967.713257	358.919464	-1287.949707	979.386536	-106.086060	-930.876129	835.035950	323.483398	-1272.997314	759.614441	-109.343754	-1117.187134	847.869995	249.297394	-1095.510864	855.171265	-9.290028	-1278.867188	847.819397	99.152191	-1305.936890	1133.970947	114.118713	-1091.759033	1042.399170	108.236473	-1246.062988	468.074066	289.629578	-1254.806519	411.787811	210.387070	-1307.596680	239.944183	239.447342	-1384.481689	67.960800	160.606888	-1440.946289	63.398869	121.026878	-1287.617065	39.487923	142.016602	-1035.410156	469.070312	-63.330341	-1015.463257	410.218414	-13.729583	-942.937134	233.205505	-47.495388	-891.799133	65.925255	18.580683	-950.042847	46.530266	60.961338	-785.074463	84.264442	30.788326
81	0.80000000	-1142.696045	1254.036621	279.281433	-1180.562134	1269.470093	-58.122597	-1231.307251	1328.647583	117.888855	-1100.632324	1240.804565	105.359741	-1093.439575	966.830566	358.328644	-1279.260742	978.304382	-105.970566	-916.575165	836.333282	322.379730	-1266.526672	758.419922	-109.235664	-1106.327026	846.431030	249.230621	-1082.680908	853.448730	-9.471244	-1266.716064	846.425171	97.558418	-1294.562988	1132.252075	112.965912	-1080.124512	1041.018921	107.622101	-1238.161011	467.689178	289.144958	-1246.974365	411.266998	209.996353	-1303.126953	240.453339	239.312012	-1383.383301	70.002869	160.838379	-1440.023315	66.623077	121.137123	-1287.145630	39.724380	141.986694	-1026.621338	466.244995	-62.969509	-1004.989441	408.311554	-13.228069	-929.142517	232.422226	-46.728901	-874.856201	65.898933	19.682737	-932.894714	45.923836	62.121853	-768.183716	84.924156	31.786367
82	0.81000000	-1131.768066	1252.765991	278.319794	-1169.217285	1267.945068	-59.261986	-1220.199097	1327.180542	116.700592	-1089.330566	1239.557129	104.437462	-1081.059082	965.998047	357.647064	-1270.175781	977.336365	-106.006737	-902.868378	837.366425	321.337906	-1259.455017	757.335938	-109.220715	-1095.203735	845.108276	249.111465	-1069.788574	851.877014	-9.696151	-1254.423096	845.209351	96.049812	-1283.035156	1130.666504	111.716827	-1068.317505	1039.814697	106.915222	-1229.979614	467.458466	288.695465	-1238.726562	410.830811	209.723938	-1298.269165	241.117996	239.358261	-1382.108032	72.346428	161.282990	-1438.915649	70.298897	121.565887	-1286.543701	40.101940	142.128128	-1017.306580	463.833496	-62.704670	-994.237915	406.618164	-12.834788	-916.475403	231.348297	-45.942097	-860.560913	65.445847	20.776840	-918.513733	45.372467	63.259911	-753.918579	84.291725	32.826267
83	0.82000000	-1120.735718	1251.682617	277.274261	-1157.723389	1266.613159	-60.510288	-1208.973633	1325.899780	115.390572	-1077.903931	1238.516357	103.404175	-1069.046143	965.230591	356.878815	-1260.659546	976.492554	-106.203362	-889.777802	838.126465	320.363007	-1251.741333	756.376709	-109.317177	-1083.783813	843.919434	248.912964	-1056.855225	850.506775	-9.988576	-1242.004395	844.197510	94.652939	-1271.351074	1129.251465	110.384315	-1056.334839	1038.819824	106.113487	-1221.460571	467.369293	288.273407	-1230.003906	410.478607	209.571213	-1292.954102	241.943497	239.583054	-1380.601440	75.025635	161.927109	-1437.542969	74.482857	122.312271	-1285.802612	40.606380	142.437469	-1007.330627	461.913879	-62.545055	-983.198486	405.168243	-12.549266	-904.906921	229.999100	-45.152164	-848.767883	64.549423	21.843094	-906.755371	44.839649	64.355705	-742.127441	82.389229	33.883766
84	0.83000000	-1109.576660	1250.818237	276.146545	-1146.080811	1265.497192	-61.859734	-1197.620605	1324.841309	113.968620	-1066.347778	1237.712769	102.260849	-1057.419434	964.545044	356.027985	-1250.677368	975.781189	-106.565727	-877.324890	838.605896	319.457550	-1243.345886	755.558197	-109.542110	-1072.047729	842.883301	248.608002	-1043.903076	849.388611	-10.372533	-1229.482544	843.410217	93.387390	-1259.514282	1128.046509	108.984360	-1044.182983	1038.064941	105.217216	-1212.518311	467.391296	287.866028	-1220.721069	410.199829	209.530380	-1287.101196	242.933929	239.973053	-1378.787842	78.078491	162.745926	-1435.799805	79.234818	123.355324	-1284.922974	41.198986	142.885574	-996.611755	460.534973	-62.501698	-971.885498	403.991669	-12.373294	-894.372803	228.434769	-44.383427	-839.259155	63.259434	22.853992	-897.392029	44.335678	65.384552	-732.593262	79.333252	34.922535
85	0.84000000	-1098.270752	1250.202515	274.939941	-1134.292236	1264.619995	-63.298016	-1186.132446	1324.040649	112.449806	-1054.661743	1237.173828	101.012817	-1046.192383	963.961121	355.098724	-1240.198364	975.211670	-107.096649	-865.530548	838.799255	318.621094	-1234.232422	754.898224	-109.910015	-1059.993896	842.020020	248.172287	-1030.955566	848.571960	-10.869282	-1216.886353	842.863281	92.264069	-1247.534790	1127.090698	107.535797	-1031.879395	1037.576050	104.230064	-1203.041016	467.479767	287.459900	-1210.768433	409.973358	209.588745	-1280.619873	244.093796	240.509506	-1376.569214	81.543472	163.707703	-1433.554932	84.613319	124.657188	-1283.911499	41.822384	143.421539	-985.127686	459.718872	-62.585346	-960.334473	403.118500	-12.311211	-884.771301	226.751480	-43.664764	-831.761475	61.677105	23.778980	-890.133362	43.903316	66.319160	-725.048828	75.324791	35.902435
86	0.85000000	-1086.802002	1249.861572	273.659637	-1122.364014	1264.004150	-64.808029	-1174.506836	1323.529541	110.854416	-1042.851440	1236.921997	99.670593	-1035.372437	963.501587	354.095551	-1229.199219	974.795837	-107.797134	-854.414459	838.703918	317.849915	-1224.369019	754.415741	-110.432007	-1047.641357	841.350220	247.587036	-1018.037537	848.104004	-11.494429	-1204.249268	842.568420	91.283928	-1235.429077	1126.420044	106.059448	-1019.451172	1037.373535	103.159370	-1192.895752	467.581146	287.046722	-1200.018066	409.768463	209.734055	-1273.413208	245.429047	241.173492	-1373.826782	85.454414	164.778549	-1430.654419	90.668633	126.167778	-1282.776245	42.411949	143.981903	-972.914917	459.465088	-62.803959	-948.599243	402.576019	-12.368834	-875.968567	225.065033	-43.026329	-825.968994	59.933334	24.589373	-884.651855	43.598469	67.132202	-719.197693	70.629875	36.788216
87	0.86000000	-1075.162354	1249.816772	272.313141	-1110.305908	1263.671753	-66.368088	-1162.748291	1323.331787	109.207222	-1030.928223	1236.973022	98.250244	-1024.961304	963.191223	353.023834	-1217.665283	974.547546	-108.666428	-843.994080	838.320831	317.136963	-1213.729553	754.129608	-111.115494	-1035.029785	840.893127	246.840912	-1005.174011	848.026550	-12.255509	-1191.606323	842.532288	90.437149	-1223.218750	1126.062256	104.576622	-1006.933289	1037.469238	102.016174	-1181.936646	467.639771	286.628876	-1188.334595	409.546722	209.959976	-1265.383179	246.946884	241.950607	-1370.424316	89.834328	165.927490	-1426.927734	97.433716	127.830322	-1281.517944	42.910240	144.502945	-960.064392	459.753632	-63.160305	-936.751038	402.382782	-12.551412	-867.811707	223.490234	-42.495541	-821.568787	58.164639	25.262882	-880.611084	43.470512	67.799347	-714.737488	65.552330	37.556625
88	0.87000000	-1063.355469	1250.081543	270.910431	-1098.130737	1263.641968	-67.952827	-1150.870361	1323.459106	107.535912	-1018.908813	1237.333252	96.773254	-1014.954102	963.054382	351.890686	-1205.591675	974.480896	-109.701630	-834.282471	837.654846	316.472351	-1202.294434	754.056213	-111.964245	-1022.216797	840.664062	245.930893	-992.389282	848.371826	-13.150516	-1178.992310	842.755981	89.703156	-1210.930054	1126.032959	103.106995	-994.365112	1037.864990	100.815010	-1170.015015	467.605164	286.223877	-1175.589233	409.265564	210.270187	-1256.436035	248.654190	242.833618	-1366.216309	94.689629	167.130753	-1422.197632	104.914444	129.586823	-1280.121704	43.281551	144.933975	-946.714844	460.545135	-63.650150	-924.878662	402.540619	-12.861181	-860.148987	222.120132	-42.092880	-818.265076	56.491760	25.787157	-877.691528	43.547222	68.302704	-711.381531	60.401882	38.200302
89	0.88000000	-1051.398315	1250.659180	269.464172	-1085.854004	1263.927734	-69.534668	-1138.895630	1323.907715	105.868889	-1006.815308	1237.997192	95.265800	-1005.341064	963.111389	350.705292	-1192.984009	974.606567	-110.897232	-825.286163	836.714539	315.844528	-1190.051697	754.206787	-112.978706	-1009.272949	840.671021	244.862198	-979.705017	849.156860	-14.167705	-1166.438354	843.232910	89.051590	-1198.591797	1126.331665	101.666229	-981.786499	1038.550903	99.573563	-1156.993530	467.438721	285.865936	-1161.676025	408.883148	210.679565	-1246.489014	250.555069	243.822830	-1361.057251	100.006042	168.374893	-1416.293213	113.080528	131.382843	-1278.544922	43.524261	145.248795	-933.045410	461.777924	-64.261566	-913.090088	403.027130	-13.295260	-852.852844	221.010101	-41.828392	-815.797729	55.004875	26.161718	-875.610291	43.827538	68.634209	-708.875977	55.462368	38.727657
90	0.89000000	-1039.322632	1251.539917	267.989746	-1073.492554	1264.532104	-71.085724	-1126.854126	1324.657227	104.232758	-994.673096	1238.946411	93.757538	-996.107300	963.374451	349.479248	-1179.859131	974.928406	-112.244957	-817.002777	835.511536	315.242126	-1176.998230	754.584351	-114.156410	-996.275879	840.912781	243.647873	-967.139099	850.376831	-15.286886	-1153.971069	843.947998	88.444550	-1186.233887	1126.941528	100.263916	-969.234192	1039.505249	98.312248	-1142.759033	467.119202	285.604095	-1146.527832	408.363922	211.211884	-1235.476318	252.648178	244.923721	-1354.812622	105.747475	169.658035	-1409.064453	121.859459	133.170944	-1276.705688	43.678814	145.453735	-919.267883	463.365295	-64.975830	-901.512268	403.791626	-13.844507	-845.841553	220.170715	-41.700100	-813.952515	53.757198	26.397861	-874.133179	44.282894	68.798027	-707.008789	50.965202	39.159145
